<?xml version="1.0" encoding="UTF-8" standalone="no"?>
<svg
   xmlns:dc="http://purl.org/dc/elements/1.1/"
   xmlns:cc="http://creativecommons.org/ns#"
   xmlns:rdf="http://www.w3.org/1999/02/22-rdf-syntax-ns#"
   xmlns:svg="http://www.w3.org/2000/svg"
   xmlns="http://www.w3.org/2000/svg"
   xmlns:sodipodi="http://sodipodi.sourceforge.net/DTD/sodipodi-0.dtd"
   xmlns:inkscape="http://www.inkscape.org/namespaces/inkscape"
   viewBox="0 0 448 512"
   version="1.1"
   id="svg4"
   sodipodi:docname="user.svg"
   inkscape:version="0.92.3 (2405546, 2018-03-11)">
  <metadata
     id="metadata10">
    <rdf:RDF>
      <cc:Work
         rdf:about="">
        <dc:format>image/svg+xml</dc:format>
        <dc:type
           rdf:resource="http://purl.org/dc/dcmitype/StillImage" />
      </cc:Work>
    </rdf:RDF>
  </metadata>
  <defs
     id="defs8" />
  <sodipodi:namedview
     pagecolor="#ffffff"
     bordercolor="#666666"
     borderopacity="1"
     objecttolerance="10"
     gridtolerance="10"
     guidetolerance="10"
     inkscape:pageopacity="0"
     inkscape:pageshadow="2"
     inkscape:window-width="1920"
     inkscape:window-height="1001"
     id="namedview6"
     showgrid="false"
     inkscape:zoom="0.4609375"
     inkscape:cx="224"
     inkscape:cy="256"
     inkscape:window-x="-9"
     inkscape:window-y="-9"
     inkscape:window-maximized="1"
     inkscape:current-layer="svg4" />
  <path
     d="M313.6 304c-28.7 0-42.5 16-89.6 16-47.1 0-60.8-16-89.6-16C60.2 304 0 364.2 0 438.4V464c0 26.5 21.5 48 48 48h352c26.5 0 48-21.5 48-48v-25.6c0-74.2-60.2-134.4-134.4-134.4zM400 464H48v-25.6c0-47.6 38.8-86.4 86.4-86.4 14.6 0 38.3 16 89.6 16 51.7 0 74.9-16 89.6-16 47.6 0 86.4 38.8 86.4 86.4V464zM224 288c79.5 0 144-64.5 144-144S303.5 0 224 0 80 64.5 80 144s64.5 144 144 144zm0-240c52.9 0 96 43.1 96 96s-43.1 96-96 96-96-43.1-96-96 43.1-96 96-96z"
     id="path2" />
  <path
     style="fill:#666666;stroke-width:2.16949153"
     d="M 188.02013,283.43695 C 161.75134,276.31883 143.20326,265.28651 122.4118,244.4134 92.602271,214.48678 80.36373,184.56721 80.650162,142.31864 80.773865,124.07247 81.917021,116.0849 86.394245,102.18305 101.36744,55.691056 135.50342,21.539293 182.12881,6.4042147 196.15806,1.8501782 203.85102,0.74886248 222.26441,0.65844502 264.67926,0.45016949 294.4847,12.599359 324.29021,42.24586 c 31.6078,31.439143 44.91453,65.46169 42.84379,109.54262 -1.75984,37.46313 -14.67496,66.29154 -41.89158,93.50818 -28.31885,28.31883 -56.11646,40.31035 -96.46954,41.61562 -19.92083,0.64436 -28.13425,-0.056 -40.75275,-3.47533 z m 59.11758,-46.81682 c 36.98275,-9.63278 64.68539,-39.88382 71.16501,-77.71158 6.91584,-40.37446 -15.54265,-82.709393 -53.79294,-101.401272 -14.53788,-7.104269 -16.09794,-7.392024 -40.07588,-7.392024 -23.57051,0 -25.75938,0.383796 -39.61172,6.945521 -20.36563,9.647009 -36.70553,25.720086 -46.69509,45.932575 -7.90106,15.98673 -8.06607,16.83329 -8.06607,41.38227 0,24.10594 0.28189,25.63853 7.39202,40.1884 20.22659,41.39084 66.43493,63.32124 109.68467,52.05611 z"
     id="path28"
     inkscape:connector-curvature="0" />
  <path
     style="fill:#333333;stroke-width:2.16949153"
     d="M 28.094915,507.53335 C 18.520938,502.49498 9.8727426,493.83857 4.5974209,484.01356 0.51030715,476.40152 -0.04218468,472.00457 0.09945665,448.21695 0.29219146,415.84857 2.9114032,403.21582 14.458729,378.9606 c 15.855834,-33.30526 49.96379,-61.31123 85.991431,-70.60736 22.5516,-5.81894 43.35054,-4.96498 70.65204,2.90082 38.96758,11.22689 68.42819,11.23326 106.22004,0.023 22.34145,-6.62721 35.27012,-8.10877 52.21578,-5.98364 53.13816,6.66396 93.32831,39.91446 112.38144,92.97651 5.23066,14.56714 7.86299,65.41527 4.10188,79.2352 -3.14457,11.55454 -14.21748,24.58023 -25.09499,29.52068 -8.37638,3.80447 -18.5569,4.00913 -197.5772,3.97193 -167.715128,-0.0349 -189.470954,-0.4209 -195.254235,-3.46439 z M 400.10967,446.58983 c -0.0291,-9.24746 -1.01945,-21.00314 -2.2006,-26.12373 -8.23212,-35.68803 -39.96796,-64.37584 -74.26081,-67.12855 -10.84412,-0.87046 -18.08948,0.11449 -33.53986,4.55943 -46.91174,13.49614 -85.10344,13.48148 -131.66587,-0.0505 -24.63814,-7.16035 -40.38584,-6.33857 -60.700018,3.16759 -18.086734,8.4638 -32.357964,22.80075 -41.019217,41.20812 -6.066056,12.89192 -6.934009,17.17659 -7.669195,37.85918 l -0.829011,23.32203 h 175.968821 175.9688 l -0.0532,-16.81356 z"
     id="path30"
     inkscape:connector-curvature="0" />
  <path
     style="fill:#666666;stroke-width:2.16949153"
     d="M 203.90124,287.53119 C 105.75631,272.46599 50.59029,168.45222 94.091356,80.488136 123.8422,20.328556 188.26375,-11.065454 254.06984,2.5271676 306.95849,13.451617 350.56004,54.955605 364.46006,107.60678 c 4.93234,18.68299 5.05064,52.98023 0.24696,71.59322 -13.16604,51.01481 -53.65945,92.04725 -103.53609,104.91431 -16.63701,4.29197 -41.79156,5.79276 -57.26969,3.41688 z m 49.16696,-54.23906 c 24.83181,-8.36524 45.00931,-26.72233 56.60205,-51.49544 9.35035,-19.98127 10.77211,-45.38346 3.7253,-66.55917 -8.93013,-26.835014 -33.66142,-52.2929 -59.18019,-60.918863 -7.68474,-2.59763 -16.35413,-3.310969 -33.62712,-2.76693 -20.48376,0.645167 -24.83305,1.495146 -36.28993,7.092124 -16.88213,8.247337 -37.46136,28.826567 -45.7087,45.708689 -5.99909,12.28001 -6.3591,14.55225 -6.3591,40.1356 0,25.52623 0.36105,27.81926 6.14867,39.0502 12.63512,24.51861 29.73841,39.92608 54.57292,49.16191 17.51647,6.51431 41.82519,6.75365 60.1161,0.59188 z"
     id="path32"
     inkscape:connector-curvature="0" />
  <path
     style="fill:#4d4d4d;stroke-width:2.16949153"
     d="M 34.255724,510.1887 C 21.325351,506.14477 12.709675,499.31034 5.8659966,487.6684 0.06903127,477.80704 -0.10496282,476.57046 0.00972648,446.04746 0.119616,416.80184 0.58641486,413.2864 6.6482031,396.05333 14.896389,372.60455 25.584896,356.4938 44.531204,338.95242 c 23.116228,-21.40208 48.410542,-32.3044 81.441226,-35.10269 12.66302,-1.07279 19.52952,-0.0887 45.11978,6.46619 42.18349,10.80527 64.48652,10.80645 106.68339,0.006 25.96773,-6.64677 32.36276,-7.54484 45.78428,-6.42963 57.52873,4.78015 107.01381,46.4474 121.05864,101.93337 4.91815,19.42972 4.42307,66.76847 -0.81894,78.30933 -5.63031,12.39573 -20.00761,24.05369 -33.13701,26.86945 -16.84386,3.612 -364.658359,2.85856 -376.406846,-0.81574 z M 400.11973,453.09831 c -0.0774,-18.56144 -4.21898,-39.70906 -10.14807,-51.81784 -15.56615,-31.79024 -52.85253,-52.55597 -83.52771,-46.51872 -6.32586,1.24501 -18.82361,4.40715 -27.77276,7.02697 -13.80298,4.04075 -21.86581,4.78674 -53.15255,4.9178 -34.31412,0.14375 -38.5425,-0.29252 -60.74576,-6.26751 -31.35269,-8.43713 -45.8714,-8.31121 -64.833708,0.56233 -19.401648,9.07913 -32.371604,21.69295 -41.474864,40.33603 -6.655677,13.63054 -7.696974,18.13104 -8.964343,38.74399 l -1.433937,23.32203 H 224.11438 400.16271 l -0.043,-10.30508 z"
     id="path34"
     inkscape:connector-curvature="0" />
  <path
     style="fill:#4d4d4d;stroke-width:2.16949153"
     d="M 194.85357,286.75532 C 150.49153,276.60524 113.46743,247.99471 94.464884,209.1795 82.805628,185.36394 79.07118,169.65143 79.110034,144.5747 79.148889,119.49682 83.122109,101.54553 93.215059,80.847191 108.05477,50.414338 130.59574,27.749977 160.4668,13.227326 c 40.77564,-19.8242186 90.52771,-18.8620129 131.87322,2.55043 21.2201,10.989684 49.7492,39.435129 60.54893,60.371397 12.57661,24.380917 15.5412,37.450357 15.50156,68.338987 -0.0306,23.85367 -0.7513,29.20571 -5.98598,44.45375 -15.33923,44.68165 -50.3302,79.88577 -92.70828,93.27301 -22.09269,6.97908 -55.36274,8.99744 -74.84268,4.54042 z m 47.36362,-52.26442 c 15.8334,-1.99662 34.61226,-12.58609 48.04052,-27.0902 36.24777,-39.15193 34.97358,-92.60099 -3.10251,-130.142957 -6.66939,-6.575826 -16.92024,-14.396726 -22.77966,-17.379777 -9.80426,-4.991373 -12.98823,-5.423729 -39.94164,-5.423729 -26.90466,0 -30.17,0.441383 -40.12447,5.423729 -13.92757,6.970939 -37.51476,30.55813 -44.4857,44.485704 -4.72782,9.44593 -5.51618,14.25353 -6.14424,37.46892 -0.6942,25.66022 -0.48846,27.12559 5.635,40.13559 8.88895,18.88559 23.34371,34.06395 41.55213,43.63221 14.71703,7.73359 33.81611,12.25418 45.73677,10.82552 2.98305,-0.35751 10.00926,-1.22825 15.6138,-1.93501 z"
     id="path36"
     inkscape:connector-curvature="0" />
</svg>
